<svg xmlns="http://www.w3.org/2000/svg" width="1280" height="720" viewBox="0 0 1280 720" role="img" aria-label="Generated cover">
  <defs>
    <linearGradient id="bg" x1="0" y1="0" x2="1" y2="1">
      <stop offset="0%" stop-color="#111827"/>
      <stop offset="58%" stop-color="#374151"/>
      <stop offset="100%" stop-color="#7f1d1d"/>
    </linearGradient>
  </defs>
  <rect width="1280" height="720" fill="url(#bg)"/>
  
  <path d="M750 560 L940 330 L1130 560 Z" fill="rgba(255,255,255,0.10)" stroke="rgba(255,255,255,0.24)" stroke-width="2"/>
  <rect x="897" y="212" width="180" height="28" rx="8" fill="rgba(255,255,255,0.68)"/>
  <rect x="869" y="246" width="58" height="110" rx="8" fill="rgba(255,255,255,0.62)"/>
  <rect x="917" y="346" width="128" height="24" rx="8" fill="rgba(255,255,255,0.62)"/>
  <path d="M936 472 L944 472 M964 472 L972 472 M992 472 L1000 472 M1020 472 L1028 472" stroke="#fde68a" stroke-width="5" stroke-linecap="round"/>
  <circle cx="1140" cy="196" r="34" fill="#f97316"/>
  <path d="M1140 178 L1140 206" stroke="#fff" stroke-width="6" stroke-linecap="round"/>
  <circle cx="1140" cy="218" r="4" fill="#fff"/>

  <rect x="56" y="56" width="1168" height="608" rx="24" fill="none" stroke="rgba(255,255,255,0.24)" stroke-width="2"/>
  <text x="84" y="146" fill="#bfdbfe" font-size="30" font-family="Arial, sans-serif" font-weight="700">ARTICLE IMAGE 1</text>
  <text x="84" y="230" fill="#ffffff" font-size="54" font-family="Arial, sans-serif" font-weight="700">두 명 숨진 사고, 왜 형량이 줄었나</text>
  <text x="84" y="292" fill="#dbeafe" font-size="30" font-family="Arial, sans-serif">항소심 감형 논란 핵심 정리</text>
  <rect x="84" y="582" width="1110" height="62" rx="31" fill="rgba(255,255,255,0.16)"/>
  <text x="116" y="622" fill="#ffffff" font-size="30" font-family="Arial, sans-serif">#음주운전 #항소심 #양형논란 #교통사고 #숨진 #사고</text>
</svg>
