<svg xmlns="http://www.w3.org/2000/svg" width="1280" height="720" viewBox="0 0 1280 720" role="img" aria-label="Generated cover">
  <defs>
    <linearGradient id="bg" x1="0" y1="0" x2="1" y2="1">
      <stop offset="0%" stop-color="#0b1f3b"/>
      <stop offset="58%" stop-color="#5b1427"/>
      <stop offset="100%" stop-color="#be123c"/>
    </linearGradient>
  </defs>
  <rect width="1280" height="720" fill="url(#bg)"/>
  
  
  <ellipse cx="963" cy="410" rx="250" ry="170" fill="rgba(255,255,255,0.10)"/>
  <path d="M792 520 L968 318 L1144 520 L968 664 Z" fill="rgba(255,255,255,0.12)" stroke="rgba(255,255,255,0.35)" stroke-width="2"/>
  <circle cx="1033" cy="220" r="82" fill="#ffffff" stroke="rgba(31,41,55,0.22)" stroke-width="2"/>
  <path d="M990 178 Q1042 220 990 262" fill="none" stroke="#ef4444" stroke-width="6" stroke-linecap="round"/>
  <path d="M1086 178 Q1034 220 1086 262" fill="none" stroke="#ef4444" stroke-width="6" stroke-linecap="round"/>

  <path d="M840 226 L906 194 L972 226 L956 330 L906 368 L856 330 Z" fill="#0f172a" stroke="rgba(255,255,255,0.36)" stroke-width="2"/>
  <rect x="896" y="238" width="20" height="96" rx="10" fill="#be123c"/>
  <path d="M774 452 Q906 372 1038 452" fill="none" stroke="rgba(255,255,255,0.58)" stroke-width="4"/>
  <path d="M906 406 L968 472 L1030 406" fill="none" stroke="rgba(255,255,255,0.42)" stroke-width="4"/>

  <rect x="56" y="56" width="1168" height="608" rx="24" fill="none" stroke="rgba(255,255,255,0.24)" stroke-width="2"/>
  <text x="84" y="146" fill="#bfdbfe" font-size="30" font-family="Arial, sans-serif" font-weight="700">본문 이미지 2</text>
  <text x="84" y="230" fill="#ffffff" font-size="54" font-family="Arial, sans-serif" font-weight="700">글로벌 기술 이슈 핵심 정리</text>
  <text x="84" y="292" fill="#dbeafe" font-size="30" font-family="Arial, sans-serif">핵심 포인트를 빠르게 정리한 콘텐츠</text>
  <rect x="84" y="582" width="1110" height="62" rx="31" fill="rgba(255,255,255,0.16)"/>
  <text x="116" y="622" fill="#ffffff" font-size="30" font-family="Arial, sans-serif">#시간당이슈 #AI #반도체 #핵심 #글로벌 #기술</text>
</svg>
