<svg xmlns="http://www.w3.org/2000/svg" width="1200" height="675" viewBox="0 0 1200 675" role="img" aria-labelledby="title desc">
  <title id="title">아침 홈카페 루틴</title>
  <desc id="desc">아침 햇살 아래 커피를 즐기는 홈카페 분위기</desc>
  <defs>
    <linearGradient id="g3" x1="0" y1="0" x2="1" y2="0">
      <stop offset="0%" stop-color="#f8efe2"/>
      <stop offset="100%" stop-color="#f0dcc5"/>
    </linearGradient>
    <linearGradient id="sun" x1="0" y1="0" x2="0" y2="1">
      <stop offset="0%" stop-color="#fff0be"/>
      <stop offset="100%" stop-color="#ffe4a0"/>
    </linearGradient>
  </defs>
  <rect width="1200" height="675" fill="url(#g3)"/>
  <circle cx="988" cy="124" r="72" fill="url(#sun)"/>
  <rect x="90" y="86" width="452" height="330" rx="14" fill="#d8edf7" opacity="0.75"/>
  <line x1="316" y1="86" x2="316" y2="416" stroke="#a7c3d4" stroke-width="8"/>
  <line x1="90" y1="251" x2="542" y2="251" stroke="#a7c3d4" stroke-width="8"/>
  <rect x="140" y="450" width="930" height="142" rx="16" fill="#7b5d46"/>
  <rect x="230" y="476" width="280" height="86" rx="14" fill="#e8d4bc"/>
  <circle cx="315" cy="520" r="34" fill="#3d2d23"/>
  <rect x="355" y="502" width="76" height="36" rx="10" fill="#3d2d23"/>
  <rect x="590" y="476" width="172" height="96" rx="14" fill="#f5efe6"/>
  <rect x="626" y="500" width="100" height="48" rx="12" fill="#d7b090"/>
  <rect x="812" y="482" width="206" height="84" rx="14" fill="#f5efe6"/>
  <rect x="848" y="512" width="134" height="22" rx="8" fill="#d4b89f"/>
</svg>
