<svg xmlns="http://www.w3.org/2000/svg" width="1280" height="720" viewBox="0 0 1280 720" role="img" aria-label="Generated cover">
  <defs>
    <linearGradient id="bg" x1="0" y1="0" x2="1" y2="1">
      <stop offset="0%" stop-color="#0b1020"/>
      <stop offset="58%" stop-color="#1d4ed8"/>
      <stop offset="100%" stop-color="#2563eb"/>
    </linearGradient>
  </defs>
  <rect width="1280" height="720" fill="url(#bg)"/>
  
  <rect x="766" y="198" width="360" height="320" rx="28" fill="rgba(255,255,255,0.10)" stroke="rgba(255,255,255,0.30)" stroke-width="2"/>
  <rect x="856" y="286" width="180" height="144" rx="18" fill="rgba(255,255,255,0.16)" stroke="rgba(255,255,255,0.35)" stroke-width="2"/>
  <path d="M866 254 L818 254 M866 350 L818 350 M866 446 L818 446 M1046 254 L1098 254 M1046 350 L1098 350 M1046 446 L1098 446" stroke="#93c5fd" stroke-width="5" stroke-linecap="round"/>
  <path d="M908 286 L908 238 M956 286 L956 238 M1004 286 L1004 238 M908 430 L908 478 M956 430 L956 478 M1004 430 L1004 478" stroke="#bfdbfe" stroke-width="5" stroke-linecap="round"/>

  <rect x="56" y="56" width="1168" height="608" rx="24" fill="none" stroke="rgba(255,255,255,0.24)" stroke-width="2"/>
  <text x="84" y="146" fill="#bfdbfe" font-size="30" font-family="Arial, sans-serif" font-weight="700">대표 이미지</text>
  <text x="84" y="230" fill="#ffffff" font-size="54" font-family="Arial, sans-serif" font-weight="700">애플카 결국 접었다 — 빅테크가 전기차 버리고 인공지능로 간 진짜 이유</text>
  <text x="84" y="292" fill="#dbeafe" font-size="30" font-family="Arial, sans-serif">10년간 비밀리에 진행된 애플카 프로젝트가 왜 취소됐을까? 빅테크 기업들이 전기차 대신 인공지능에 올인하는 진짜 이유를 쉽게 풀어봤…</text>
  <rect x="84" y="582" width="1110" height="62" rx="31" fill="rgba(255,255,255,0.16)"/>
  <text x="116" y="622" fill="#ffffff" font-size="30" font-family="Arial, sans-serif">#애플카 #프로젝트타이탄 #전기차 #AI #테크뉴스 #애플</text>
</svg>
