<svg xmlns="http://www.w3.org/2000/svg" width="1280" height="720" viewBox="0 0 1280 720" role="img" aria-label="Generated cover">
  <defs>
    <linearGradient id="bg" x1="0" y1="0" x2="1" y2="1">
      <stop offset="0%" stop-color="#0f172a"/>
      <stop offset="58%" stop-color="#064e3b"/>
      <stop offset="100%" stop-color="#0f766e"/>
    </linearGradient>
  </defs>
  <rect width="1280" height="720" fill="url(#bg)"/>
  
  <rect x="740" y="152" width="470" height="394" rx="22" fill="rgba(255,255,255,0.08)" stroke="rgba(255,255,255,0.28)" stroke-width="2"/>
  <path d="M772 498 L840 452 L898 468 L962 408 L1038 430 L1112 340 L1180 302" fill="none" stroke="#22c55e" stroke-width="8" stroke-linecap="round" stroke-linejoin="round"/>
  <rect x="813" y="420" width="24" height="78" rx="4" fill="#60a5fa"/>
  <rect x="863" y="382" width="24" height="116" rx="4" fill="#60a5fa"/>
  <rect x="913" y="358" width="24" height="140" rx="4" fill="#34d399"/>
  <rect x="963" y="326" width="24" height="172" rx="4" fill="#34d399"/>
  <rect x="1013" y="294" width="24" height="204" rx="4" fill="#22c55e"/>

  <rect x="56" y="56" width="1168" height="608" rx="24" fill="none" stroke="rgba(255,255,255,0.24)" stroke-width="2"/>
  <text x="84" y="146" fill="#bfdbfe" font-size="30" font-family="Arial, sans-serif" font-weight="700">MAIN COVER</text>
  <text x="84" y="230" fill="#ffffff" font-size="54" font-family="Arial, sans-serif" font-weight="700">금융위, 다주택자 대출 만기연장 실태 점검…전 금융권 긴급 회의: 지금 논쟁의 핵심만…</text>
  <text x="84" y="292" fill="#dbeafe" font-size="30" font-family="Arial, sans-serif">금융위, 다주택자 대출 만기연장 실태 점검…전 금융권 긴급 회의&amp;nbsp;&amp;nbsp;대한민국 정책브리핑&quot;다주택자 대출은 &apos;공정성&apos; …</text>
  <rect x="84" y="582" width="1110" height="62" rx="31" fill="rgba(255,255,255,0.16)"/>
  <text x="116" y="622" fill="#ffffff" font-size="30" font-family="Arial, sans-serif">#핫이슈 #자동이슈봇 #정책 #경제 #대한민국정책브리핑 #금융위</text>
</svg>
